<svg xmlns="http://www.w3.org/2000/svg" xmlns:xlink="http://www.w3.org/1999/xlink" class="logo__img" version="1.1" id="Capa_1" x="0px" y="0px" viewBox="0 0 132.19 60.48" style="enable-background:new 0 0 132.19 60.48;" xml:space="preserve">
                    <style type="text/css">
                        .st0qaz{fill:#71B838;}
                        .st1qaz{fill:#009966;}
                        .st2qaz{fill:#003DA5;}
                        .st3qaz{fill:#432C89;}
                        .st4qaz{fill:#210456;}
                        .st5qaz{fill:#301971;}
                        .st6qaz{fill:#65559E;}
                        .st7qaz{fill:#514093;}
                        .st8qaz{fill:#5C9A2D;}
                        .st9qaz{fill:#636363;}
                    </style>
                    <g>
                        <g>
                            <rect x="0.26" y="0.39" class="st0qaz" width="9.6" height="38.41"/>
                            <polygon class="st1qaz" points="9.86,0.39 29.07,19.6 9.86,38.81 23.44,38.81 42.65,19.6 23.44,0.39       "/>
                            <polygon class="st1qaz" points="61.86,0.39 42.65,19.6 61.86,38.81 75.44,38.81 56.23,19.6 75.44,0.39         "/>
                            <polygon class="st2qaz" points="121.05,0.39 103.42,18.02 85.79,0.39 75.44,0.39 75.44,38.81 85.04,38.81 85.04,13.22 103.42,31.6                                  121.8,13.22 121.8,38.81 131.4,38.81 131.4,0.39      "/>
                        </g>
                        <g>
                            <polygon class="st3qaz" points="28.72,58.01 25.13,58.01 28.4,48.41 32,48.41         "/>
                            <path class="st4qaz" d="M41.79,48.41h-1.91c-2.74,0-4.97,2.15-4.97,4.8c0,2.65,2.22,4.8,4.97,4.8h1.91c2.74,0,4.97-2.15,4.97-4.8                                 C46.76,50.56,44.54,48.41,41.79,48.41 M41.57,55.21h-1.46c-1.14,0-2.06-0.89-2.06-2c0-1.1,0.92-2,2.06-2h1.46                                 c1.14,0,2.07,0.89,2.07,2C43.63,54.31,42.71,55.21,41.57,55.21"/>
                            <path class="st4qaz" d="M52.69,51.21h2.03h0.25h0.23h1.86v-2.81h-2.34h-2.26c-2.74,0-4.97,2.15-4.97,4.8c0,2.65,2.22,4.8,4.97,4.8                                 h2.26h2.34v-2.81h-0.44h-2.13h-1.81c-1.14,0-2.07-0.89-2.07-2C50.62,52.11,51.55,51.21,52.69,51.21"/>
                            <path class="st4qaz" d="M13.49,51.21h2.03h0.25h0.34h1.73v-2.81h-2.32h-2.26c-2.74,0-4.97,2.15-4.97,4.8c0,2.65,2.22,4.8,4.97,4.8                                 h2.26h2.32v-2.81h-0.44H15.3h-1.81c-1.14,0-2.07-0.89-2.07-2C11.43,52.11,12.35,51.21,13.49,51.21"/>
                            <polygon class="st4qaz" points="31.68,58.01 35.27,58.01 32,48.41 28.4,48.41         "/>
                            <polygon class="st5qaz" points="28.4,48.41 32,48.41 30.2,53.68      "/>
                            <polygon class="st6qaz" points="25.13,58.01 28.72,58.01 25.45,48.41 21.85,48.41         "/>
                            <polygon class="st7qaz" points="28.72,58.01 25.13,58.01 26.93,52.74         "/>
                            <polygon class="st0qaz" points="22.17,58.01 18.58,58.01 21.85,48.41 25.45,48.41         "/>
                            <polygon class="st8qaz" points="21.85,48.41 25.45,48.41 23.65,53.68         "/>
                        </g>
                        <g>
                            <path class="st9qaz" d="M60.43,54.59c0-2.22,1.33-3.57,3.16-3.57c0.96,0,1.59,0.43,1.99,0.85l-0.48,0.57                                 c-0.35-0.36-0.79-0.65-1.48-0.65c-1.39,0-2.28,1.07-2.28,2.78c0,1.73,0.82,2.83,2.29,2.83c0.49,0,0.97-0.16,1.24-0.41v-1.8h-1.46                                 v-0.72h2.26v2.9c-0.44,0.46-1.2,0.8-2.12,0.8C61.73,58.16,60.43,56.84,60.43,54.59z"/>
                            <path class="st9qaz" d="M67.23,52.93h0.71l0.07,0.92h0.03c0.35-0.64,0.87-1.05,1.45-1.05c0.22,0,0.38,0.03,0.55,0.11l-0.17,0.76                                 c-0.17-0.05-0.28-0.08-0.49-0.08c-0.43,0-0.95,0.31-1.29,1.18v3.28h-0.86V52.93z"/>
                            <path class="st9qaz" d="M70.4,55.49c0-1.71,1.11-2.69,2.36-2.69c1.25,0,2.36,0.98,2.36,2.69c0,1.69-1.11,2.67-2.36,2.67                                 C71.51,58.16,70.4,57.18,70.4,55.49z M74.23,55.49c0-1.18-0.59-1.98-1.47-1.98c-0.87,0-1.47,0.8-1.47,1.98                                 c0,1.17,0.6,1.95,1.47,1.95C73.64,57.45,74.23,56.66,74.23,55.49z"/>
                            <path class="st9qaz" d="M76.4,56.16v-3.24h0.87v3.12c0,0.96,0.28,1.37,0.96,1.37c0.53,0,0.89-0.26,1.38-0.86v-3.63h0.86v5.11h-0.71                                 l-0.07-0.8h-0.03c-0.47,0.56-0.98,0.92-1.68,0.92C76.88,58.16,76.4,57.47,76.4,56.16z"/>
                            <path class="st9qaz" d="M82.19,52.93h0.71l0.07,0.59h0.03c0.46-0.39,1.03-0.71,1.63-0.71c1.31,0,2.02,1.02,2.02,2.61                                 c0,1.73-1.04,2.75-2.21,2.75c-0.47,0-0.95-0.22-1.42-0.59l0.02,0.89v1.72h-0.86V52.93z M85.76,55.41c0-1.12-0.38-1.88-1.35-1.88                                 c-0.43,0-0.86,0.24-1.37,0.69v2.68c0.46,0.39,0.91,0.54,1.25,0.54C85.14,57.44,85.76,56.67,85.76,55.41z"/>
                        </g>
                        <g>
                            <path class="st9qaz" d="M90.03,54.59c0-2.22,1.3-3.57,3.06-3.57c0.84,0,1.49,0.4,1.89,0.85l-0.47,0.57                                 c-0.37-0.39-0.82-0.65-1.41-0.65c-1.3,0-2.16,1.07-2.16,2.78c0,1.73,0.83,2.83,2.13,2.83c0.66,0,1.16-0.29,1.6-0.78l0.48,0.55                                 c-0.55,0.63-1.22,1-2.11,1C91.31,58.16,90.03,56.84,90.03,54.59z"/>
                            <path class="st9qaz" d="M95.97,55.49c0-1.71,1.11-2.69,2.36-2.69s2.36,0.98,2.36,2.69c0,1.69-1.11,2.67-2.36,2.67                                 S95.97,57.18,95.97,55.49z M99.8,55.49c0-1.18-0.59-1.98-1.47-1.98c-0.87,0-1.47,0.8-1.47,1.98c0,1.17,0.6,1.95,1.47,1.95                                 C99.21,57.45,99.8,56.66,99.8,55.49z"/>
                            <path class="st9qaz" d="M102.04,52.93h0.71l0.07,0.74h0.03c0.44-0.48,0.98-0.86,1.59-0.86c0.78,0,1.2,0.37,1.41,0.98                                 c0.54-0.58,1.06-0.98,1.68-0.98c1.05,0,1.56,0.69,1.56,2v3.24h-0.86v-3.12c0-0.96-0.3-1.37-0.95-1.37c-0.4,0-0.81,0.26-1.28,0.79                                 v3.7h-0.86v-3.12c0-0.96-0.3-1.37-0.96-1.37c-0.38,0-0.81,0.26-1.28,0.79v3.7h-0.86V52.93z"/>
                            <path class="st9qaz" d="M110.75,52.93h0.71l0.07,0.59h0.03c0.46-0.39,1.03-0.71,1.63-0.71c1.31,0,2.02,1.02,2.02,2.61                                 c0,1.73-1.04,2.75-2.21,2.75c-0.47,0-0.95-0.22-1.42-0.59l0.02,0.89v1.72h-0.86V52.93z M114.33,55.41c0-1.12-0.38-1.88-1.35-1.88                                 c-0.43,0-0.86,0.24-1.37,0.69v2.68c0.46,0.39,0.91,0.54,1.25,0.54C113.71,57.44,114.33,56.67,114.33,55.41z"/>
                            <path class="st9qaz" d="M116.12,56.71c0-1.11,0.96-1.67,3.13-1.91c0-0.65-0.21-1.28-1.05-1.28c-0.59,0-1.12,0.27-1.52,0.55l-0.34-0.6                                 c0.47-0.3,1.19-0.66,2.01-0.66c1.25,0,1.78,0.83,1.78,2.1v3.13h-0.71l-0.07-0.61h-0.03c-0.48,0.4-1.05,0.74-1.69,0.74                                 C116.77,58.16,116.12,57.62,116.12,56.71z M119.26,56.78v-1.42c-1.7,0.21-2.29,0.63-2.29,1.28c0,0.58,0.4,0.82,0.9,0.82                                 C118.36,57.47,118.76,57.23,119.26,56.78z"/>
                            <path class="st9qaz" d="M121.74,52.93h0.71l0.07,0.74h0.03c0.48-0.48,1.01-0.86,1.71-0.86c1.07,0,1.56,0.69,1.56,2v3.24h-0.86v-3.12                                 c0-0.96-0.29-1.37-0.97-1.37c-0.53,0-0.88,0.27-1.4,0.79v3.7h-0.86V52.93z"/>
                            <path class="st9qaz" d="M126.97,60.13l0.17-0.68c0.11,0.03,0.26,0.07,0.39,0.07c0.58,0,0.95-0.46,1.16-1.09l0.12-0.38l-2.05-5.12                                 h0.89l1.04,2.83c0.16,0.44,0.34,0.97,0.49,1.44h0.04c0.15-0.46,0.29-0.99,0.43-1.44l0.91-2.83h0.84l-1.92,5.53                                 c-0.36,1.01-0.88,1.78-1.91,1.78C127.34,60.23,127.14,60.19,126.97,60.13z"/>
                        </g>
                        <g>
                            <path class="st9qaz" d="M2.56,51.2h0.98l2.3,6.81H4.92l-0.64-2.08H1.8l-0.65,2.08H0.26L2.56,51.2z M2.01,55.24h2.04L3.74,54.2                                 c-0.25-0.76-0.47-1.5-0.68-2.29H3.01C2.8,52.7,2.58,53.45,2.34,54.2L2.01,55.24z"/>
                        </g>
                    </g>
                </svg>