<svg width="215" height="108" viewBox="0 0 215 108" fill="none" xmlns="http://www.w3.org/2000/svg">
<path d="M186.121 57.3291H194.417L190.298 48.3678L186.121 57.3291ZM194.246 44.6099L203 64.7969H197.507L195.505 60.0271H185.034L183.088 64.7969H177.596L186.293 44.6099H194.246Z" fill="white"/>
<path d="M165.613 64.7969H149.192V44.6099H154.685V62.0988H165.613V64.7969Z" fill="white"/>
<path d="M117.663 64.7969V44.6099H123.156V54.5829L131.795 44.6099H137.517L128.763 54.7756L137.517 64.7969H131.795L123.156 54.9202V64.7969H117.663Z" fill="white"/>
<path d="M96.0403 62.0988C97.5661 62.0988 98.329 61.6492 98.329 60.7498V44.6099H103.879V61.1834C103.879 62.2755 103.212 63.1588 101.876 63.8333C100.58 64.4757 98.9966 64.7969 97.1275 64.7969H92.4356C89.4985 64.7969 87.4387 64.1063 86.2562 62.7252C85.8747 62.2755 85.684 61.7616 85.684 61.1834V44.6099H91.1769V60.7498C91.1769 61.6492 91.9588 62.0988 93.5228 62.0988H96.0403Z" fill="white"/>
<path d="M53.9268 64.7969V44.6099H59.4197V54.5829L68.0595 44.6099H73.7812L65.027 54.7756L73.7812 64.7969H68.0595L59.4197 54.9202V64.7969H53.9268Z" fill="white"/>
<path d="M52.374 12H55.4797V27.5285H52.374V12Z" fill="#ED1A26"/>
<rect x="52.374" y="80.3252" width="3.10569" height="15.5285" fill="#ED1A26"/>
<rect x="27.5284" y="52.374" width="3.10569" height="15.5285" transform="rotate(90 27.5284 52.374)" fill="#ED1A26"/>
<path fill-rule="evenodd" clip-rule="evenodd" d="M24.7883 49.2682H27.938C29.8691 38.4229 38.4227 29.8694 49.268 27.9383V24.7886C36.7044 26.7815 26.7812 36.7046 24.7883 49.2682ZM27.9379 58.5853H24.7882C26.781 71.149 36.7042 81.0724 49.268 83.0653V79.9156C38.4226 77.9845 29.8689 69.4307 27.9379 58.5853ZM76.8026 72.5611C72.3218 78.0553 65.9011 81.9049 58.585 83.0653V79.9156C64.0234 78.9473 68.8855 76.3138 72.6254 72.5611H76.8026ZM58.585 27.9383C64.7455 29.0352 70.1666 32.2689 74.0545 36.8456H77.9861C73.4924 30.5276 66.5723 26.0555 58.585 24.7886V27.9383Z" fill="#ED1A26"/>
<path d="M18.5125 49.2683H21.6473C23.6901 34.9867 34.9867 23.6901 49.2683 21.6473V18.5125C33.2691 20.5966 20.5965 33.2691 18.5125 49.2683Z" fill="#ED1A26"/>
<path d="M21.6473 58.5854H18.5125C20.5966 74.5846 33.2691 87.2571 49.2683 89.3412V86.2064C34.9867 84.1635 23.6902 72.867 21.6473 58.5854Z" fill="#ED1A26"/>
<path d="M84.4018 72.561C78.8922 81.5524 69.5151 87.9175 58.5854 89.3412V86.2064C67.7237 84.8992 75.6399 79.8033 80.6916 72.561H84.4018Z" fill="#ED1A26"/>
<path d="M58.5854 21.6473C68.3638 23.046 76.7428 28.7828 81.7104 36.8455H85.3005C79.9496 27.0382 70.1342 20.0168 58.5854 18.5125V21.6473Z" fill="#ED1A26"/>
</svg>
