<svg width="32" height="37" viewBox="0 0 32 37" fill="none" xmlns="http://www.w3.org/2000/svg">
<path d="M17.4601 0H18.8032V6.71543H17.4601V0Z" fill="#ED1A26"/>
<rect x="17.4601" y="29.5479" width="1.34309" height="6.71543" fill="#ED1A26"/>
<rect x="6.71545" y="17.46" width="1.34309" height="6.71543" transform="rotate(90 6.71545 17.46)" fill="#ED1A26"/>
<path fill-rule="evenodd" clip-rule="evenodd" d="M5.53044 16.1169H6.89258C7.72772 11.4268 11.4268 7.72776 16.1169 6.89266V5.53053C10.6837 6.39236 6.39232 10.6837 5.53044 16.1169ZM6.89253 20.1462H5.5304C6.39216 25.5795 10.6836 29.871 16.1169 30.7328V29.3707C11.4267 28.5356 7.72756 24.8364 6.89253 20.1462ZM28.0245 26.1903C26.0867 28.5663 23.31 30.231 20.1462 30.7329V29.3707C22.498 28.952 24.6006 27.8131 26.218 26.1903H28.0245ZM20.1462 6.89265C22.8104 7.367 25.1548 8.76548 26.8361 10.7448H28.5364C26.593 8.01244 23.6004 6.07841 20.1462 5.53052V6.89265Z" fill="#ED1A26"/>
<path d="M2.81641 16.1171H4.17211C5.05554 9.94085 9.94083 5.05555 16.1171 4.17211V2.81641C9.19804 3.7177 3.71769 9.19806 2.81641 16.1171Z" fill="#ED1A26"/>
<path d="M4.17211 20.1463H2.81641C3.71771 27.0654 9.19805 32.5457 16.1171 33.447V32.0913C9.94085 31.2078 5.05556 26.3226 4.17211 20.1463Z" fill="#ED1A26"/>
<path d="M31.3109 26.1902C28.9282 30.0786 24.873 32.8313 20.1463 33.447V32.0913C24.0983 31.526 27.5217 29.3222 29.7064 26.1902H31.3109Z" fill="#ED1A26"/>
<path d="M20.1463 4.17211C24.3751 4.77699 27.9987 7.2579 30.1469 10.7447H31.6995C29.3855 6.50347 25.1407 3.46699 20.1463 2.81641V4.17211Z" fill="#ED1A26"/>
</svg>
